{
	"asset":{
		"generator":"Khronos glTF Blender I/O v4.1.63",
		"version":"2.0"
	},
	"scene":0,
	"scenes":[
		{
			"name":"Scene",
			"nodes":[
				0
			]
		}
	],
	"nodes":[
		{
			"mesh":0,
			"name":"Zu 5 02_\u012c\u024f"
		}
	],
	"materials":[
		{
			"doubleSided":true,
			"name":"mat_0",
			"pbrMetallicRoughness":{
				"baseColorFactor":[
					1,
					0,
					0,
					1
				],
				"metallicFactor":0.5,
				"roughnessFactor":0.5
			}
		},
		{
			"doubleSided":true,
			"name":"mat_1",
			"pbrMetallicRoughness":{
				"baseColorFactor":[
					0.68668532371521,
					0.68668532371521,
					0.68668532371521,
					1
				],
				"metallicFactor":0.5,
				"roughnessFactor":0.5
			}
		},
		{
			"doubleSided":true,
			"name":"mat_2",
			"pbrMetallicRoughness":{
				"baseColorFactor":[
					0.5906188488006592,
					0.6375969052314758,
					0.8549926280975342,
					1
				],
				"metallicFactor":0.5,
				"roughnessFactor":0.5
			}
		}
	],
	"meshes":[
		{
			"name":"Zu 5 02_\u012c\u024f",
			"primitives":[
				{
					"attributes":{
						"POSITION":0,
						"NORMAL":1
					},
					"indices":2,
					"material":0
				},
				{
					"attributes":{
						"POSITION":3,
						"NORMAL":4
					},
					"indices":5,
					"material":1
				},
				{
					"attributes":{
						"POSITION":6,
						"NORMAL":7
					},
					"indices":8,
					"material":2
				}
			]
		}
	],
	"accessors":[
		{
			"bufferView":0,
			"componentType":5126,
			"count":3079,
			"max":[
				0.21965107321739197,
				0.4925105571746826,
				0.06268399208784103
			],
			"min":[
				0.08065102994441986,
				-0.06251013278961182,
				-0.06233701854944229
			],
			"type":"VEC3"
		},
		{
			"bufferView":1,
			"componentType":5126,
			"count":3079,
			"type":"VEC3"
		},
		{
			"bufferView":2,
			"componentType":5123,
			"count":12240,
			"type":"SCALAR"
		},
		{
			"bufferView":3,
			"componentType":5126,
			"count":14481,
			"max":[
				0.2216508686542511,
				0.4916096329689026,
				0.06114037707448006
			],
			"min":[
				0.06400103867053986,
				-0.06160914897918701,
				-0.06079341098666191
			],
			"type":"VEC3"
		},
		{
			"bufferView":4,
			"componentType":5126,
			"count":14481,
			"type":"VEC3"
		},
		{
			"bufferView":5,
			"componentType":5123,
			"count":52170,
			"type":"SCALAR"
		},
		{
			"bufferView":6,
			"componentType":5126,
			"count":459,
			"max":[
				0.20665106177330017,
				0.48900020122528076,
				0.059173498302698135
			],
			"min":[
				0.08045104146003723,
				-0.05899977684020996,
				-0.0588265024125576
			],
			"type":"VEC3"
		},
		{
			"bufferView":7,
			"componentType":5126,
			"count":459,
			"type":"VEC3"
		},
		{
			"bufferView":8,
			"componentType":5123,
			"count":1056,
			"type":"SCALAR"
		}
	],
	"bufferViews":[
		{
			"buffer":0,
			"byteLength":36948,
			"byteOffset":0,
			"target":34962
		},
		{
			"buffer":0,
			"byteLength":36948,
			"byteOffset":36948,
			"target":34962
		},
		{
			"buffer":0,
			"byteLength":24480,
			"byteOffset":73896,
			"target":34963
		},
		{
			"buffer":0,
			"byteLength":173772,
			"byteOffset":98376,
			"target":34962
		},
		{
			"buffer":0,
			"byteLength":173772,
			"byteOffset":272148,
			"target":34962
		},
		{
			"buffer":0,
			"byteLength":104340,
			"byteOffset":445920,
			"target":34963
		},
		{
			"buffer":0,
			"byteLength":5508,
			"byteOffset":550260,
			"target":34962
		},
		{
			"buffer":0,
			"byteLength":5508,
			"byteOffset":555768,
			"target":34962
		},
		{
			"buffer":0,
			"byteLength":2112,
			"byteOffset":561276,
			"target":34963
		}
	],
	"buffers":[
		{
			"byteLength":563388,
			"uri":"JAKA_Zu_5_J2.bin"
		}
	]
}
