{
	"asset":{
		"generator":"Khronos glTF Blender I/O v4.1.63",
		"version":"2.0"
	},
	"scene":0,
	"scenes":[
		{
			"name":"Scene",
			"nodes":[
				0
			]
		}
	],
	"nodes":[
		{
			"mesh":0,
			"name":"Zu 5 04_\u012c\u024f001"
		}
	],
	"materials":[
		{
			"doubleSided":true,
			"name":"mat_1",
			"pbrMetallicRoughness":{
				"baseColorFactor":[
					0.68668532371521,
					0.68668532371521,
					0.68668532371521,
					1
				],
				"metallicFactor":0.5,
				"roughnessFactor":0.5
			}
		},
		{
			"doubleSided":true,
			"name":"mat_0",
			"pbrMetallicRoughness":{
				"baseColorFactor":[
					1,
					0,
					0,
					1
				],
				"metallicFactor":0.5,
				"roughnessFactor":0.5
			}
		}
	],
	"meshes":[
		{
			"name":"Zu 5 04_\u012c\u024f001",
			"primitives":[
				{
					"attributes":{
						"POSITION":0,
						"NORMAL":1
					},
					"indices":2,
					"material":0
				},
				{
					"attributes":{
						"POSITION":3,
						"NORMAL":4
					},
					"indices":5,
					"material":1
				}
			]
		}
	],
	"accessors":[
		{
			"bufferView":0,
			"componentType":5126,
			"count":2045,
			"max":[
				0.15545451641082764,
				0.06800077855587006,
				0.04096497595310211
			],
			"min":[
				0.06850220263004303,
				-0.056974299252033234,
				-0.040946945548057556
			],
			"type":"VEC3"
		},
		{
			"bufferView":1,
			"componentType":5126,
			"count":2045,
			"type":"VEC3"
		},
		{
			"bufferView":2,
			"componentType":5123,
			"count":8166,
			"type":"SCALAR"
		},
		{
			"bufferView":3,
			"componentType":5126,
			"count":1188,
			"max":[
				0.15614141523838043,
				0.055000778287649155,
				0.04217816889286041
			],
			"min":[
				0.06850220263004303,
				-0.05449921265244484,
				-0.04217241704463959
			],
			"type":"VEC3"
		},
		{
			"bufferView":4,
			"componentType":5126,
			"count":1188,
			"type":"VEC3"
		},
		{
			"bufferView":5,
			"componentType":5123,
			"count":5694,
			"type":"SCALAR"
		}
	],
	"bufferViews":[
		{
			"buffer":0,
			"byteLength":24540,
			"byteOffset":0,
			"target":34962
		},
		{
			"buffer":0,
			"byteLength":24540,
			"byteOffset":24540,
			"target":34962
		},
		{
			"buffer":0,
			"byteLength":16332,
			"byteOffset":49080,
			"target":34963
		},
		{
			"buffer":0,
			"byteLength":14256,
			"byteOffset":65412,
			"target":34962
		},
		{
			"buffer":0,
			"byteLength":14256,
			"byteOffset":79668,
			"target":34962
		},
		{
			"buffer":0,
			"byteLength":11388,
			"byteOffset":93924,
			"target":34963
		}
	],
	"buffers":[
		{
			"byteLength":105312,
			"uri":"JAKA_Zu_5_J4.bin"
		}
	]
}
