{
	"asset":{
		"generator":"Khronos glTF Blender I/O v4.1.63",
		"version":"2.0"
	},
	"scene":0,
	"scenes":[
		{
			"name":"Scene",
			"nodes":[
				0
			]
		}
	],
	"nodes":[
		{
			"mesh":0,
			"name":"Zu 5 03_\u012c\u024f"
		}
	],
	"materials":[
		{
			"doubleSided":true,
			"name":"mat_0",
			"pbrMetallicRoughness":{
				"baseColorFactor":[
					1,
					0,
					0,
					1
				],
				"metallicFactor":0.5,
				"roughnessFactor":0.5
			}
		},
		{
			"doubleSided":true,
			"name":"mat_1",
			"pbrMetallicRoughness":{
				"baseColorFactor":[
					0.68668532371521,
					0.68668532371521,
					0.68668532371521,
					1
				],
				"metallicFactor":0.5,
				"roughnessFactor":0.5
			}
		}
	],
	"meshes":[
		{
			"name":"Zu 5 03_\u012c\u024f",
			"primitives":[
				{
					"attributes":{
						"POSITION":0,
						"NORMAL":1
					},
					"indices":2,
					"material":0
				},
				{
					"attributes":{
						"POSITION":3,
						"NORMAL":4
					},
					"indices":5,
					"material":1
				}
			]
		}
	],
	"accessors":[
		{
			"bufferView":0,
			"componentType":5126,
			"count":1767,
			"max":[
				0.05550048127770424,
				0.4106331169605255,
				0.04225273057818413
			],
			"min":[
				-0.05399952456355095,
				0.1382410228252411,
				-0.042097870260477066
			],
			"type":"VEC3"
		},
		{
			"bufferView":1,
			"componentType":5126,
			"count":1767,
			"type":"VEC3"
		},
		{
			"bufferView":2,
			"componentType":5123,
			"count":7134,
			"type":"SCALAR"
		},
		{
			"bufferView":3,
			"componentType":5126,
			"count":6708,
			"max":[
				0.06850047409534454,
				0.4099462330341339,
				0.05907999724149704
			],
			"min":[
				-0.05647459626197815,
				-0.05889981985092163,
				-0.058919914066791534
			],
			"type":"VEC3"
		},
		{
			"bufferView":4,
			"componentType":5126,
			"count":6708,
			"type":"VEC3"
		},
		{
			"bufferView":5,
			"componentType":5123,
			"count":23604,
			"type":"SCALAR"
		}
	],
	"bufferViews":[
		{
			"buffer":0,
			"byteLength":21204,
			"byteOffset":0,
			"target":34962
		},
		{
			"buffer":0,
			"byteLength":21204,
			"byteOffset":21204,
			"target":34962
		},
		{
			"buffer":0,
			"byteLength":14268,
			"byteOffset":42408,
			"target":34963
		},
		{
			"buffer":0,
			"byteLength":80496,
			"byteOffset":56676,
			"target":34962
		},
		{
			"buffer":0,
			"byteLength":80496,
			"byteOffset":137172,
			"target":34962
		},
		{
			"buffer":0,
			"byteLength":47208,
			"byteOffset":217668,
			"target":34963
		}
	],
	"buffers":[
		{
			"byteLength":264876,
			"uri":"JAKA_Zu_5_J3.bin"
		}
	]
}
