{
	"asset":{
		"generator":"Khronos glTF Blender I/O v4.1.63",
		"version":"2.0"
	},
	"scene":0,
	"scenes":[
		{
			"name":"Scene",
			"nodes":[
				0
			]
		}
	],
	"nodes":[
		{
			"mesh":0,
			"name":"Zu 5 01_\u012c\u024f"
		}
	],
	"materials":[
		{
			"doubleSided":true,
			"name":"mat_0",
			"pbrMetallicRoughness":{
				"baseColorFactor":[
					1,
					0,
					0,
					1
				],
				"metallicFactor":0.5,
				"roughnessFactor":0.5
			}
		},
		{
			"doubleSided":true,
			"name":"mat_1",
			"pbrMetallicRoughness":{
				"baseColorFactor":[
					0.68668532371521,
					0.68668532371521,
					0.68668532371521,
					1
				],
				"metallicFactor":0.5,
				"roughnessFactor":0.5
			}
		}
	],
	"meshes":[
		{
			"name":"Zu 5 01_\u012c\u024f",
			"primitives":[
				{
					"attributes":{
						"POSITION":0,
						"NORMAL":1
					},
					"indices":2,
					"material":0
				},
				{
					"attributes":{
						"POSITION":3,
						"NORMAL":4
					},
					"indices":5,
					"material":1
				}
			]
		}
	],
	"accessors":[
		{
			"bufferView":0,
			"componentType":5126,
			"count":1158,
			"max":[
				0.06400000303983688,
				0.19564998149871826,
				0.06251050531864166
			],
			"min":[
				-0.06251035630702972,
				0.05664997920393944,
				-0.06251019984483719
			],
			"type":"VEC3"
		},
		{
			"bufferView":1,
			"componentType":5126,
			"count":1158,
			"type":"VEC3"
		},
		{
			"bufferView":2,
			"componentType":5123,
			"count":5391,
			"type":"SCALAR"
		},
		{
			"bufferView":3,
			"componentType":5126,
			"count":3921,
			"max":[
				0.06400000303983688,
				0.19764980673789978,
				0.06096689775586128
			],
			"min":[
				-0.06160938739776611,
				0.03999999910593033,
				-0.060953546315431595
			],
			"type":"VEC3"
		},
		{
			"bufferView":4,
			"componentType":5126,
			"count":3921,
			"type":"VEC3"
		},
		{
			"bufferView":5,
			"componentType":5123,
			"count":14064,
			"type":"SCALAR"
		}
	],
	"bufferViews":[
		{
			"buffer":0,
			"byteLength":13896,
			"byteOffset":0,
			"target":34962
		},
		{
			"buffer":0,
			"byteLength":13896,
			"byteOffset":13896,
			"target":34962
		},
		{
			"buffer":0,
			"byteLength":10782,
			"byteOffset":27792,
			"target":34963
		},
		{
			"buffer":0,
			"byteLength":47052,
			"byteOffset":38576,
			"target":34962
		},
		{
			"buffer":0,
			"byteLength":47052,
			"byteOffset":85628,
			"target":34962
		},
		{
			"buffer":0,
			"byteLength":28128,
			"byteOffset":132680,
			"target":34963
		}
	],
	"buffers":[
		{
			"byteLength":160808,
			"uri":"JAKA_Zu_5_J1.bin"
		}
	]
}
