{
	"asset":{
		"generator":"Khronos glTF Blender I/O v4.1.63",
		"version":"2.0"
	},
	"scene":0,
	"scenes":[
		{
			"name":"Scene",
			"nodes":[
				0
			]
		}
	],
	"nodes":[
		{
			"mesh":0,
			"name":"Zu 5 00_\u012c\u024f"
		}
	],
	"materials":[
		{
			"doubleSided":true,
			"name":"mat_0",
			"pbrMetallicRoughness":{
				"baseColorFactor":[
					0.6038273572921753,
					0.6038273572921753,
					0.6038273572921753,
					1
				],
				"metallicFactor":0.5,
				"roughnessFactor":0.5
			}
		},
		{
			"doubleSided":true,
			"name":"mat_1",
			"pbrMetallicRoughness":{
				"baseColorFactor":[
					0.16826939582824707,
					0.16826939582824707,
					0.16826939582824707,
					1
				],
				"metallicFactor":0.5,
				"roughnessFactor":0.5
			}
		},
		{
			"doubleSided":true,
			"name":"mat_2",
			"pbrMetallicRoughness":{
				"baseColorFactor":[
					0.024157634004950523,
					0.024157634004950523,
					0.024157634004950523,
					1
				],
				"metallicFactor":0.5,
				"roughnessFactor":0.5
			}
		}
	],
	"meshes":[
		{
			"name":"Zu 5 00_\u012c\u024f",
			"primitives":[
				{
					"attributes":{
						"POSITION":0,
						"NORMAL":1
					},
					"indices":2,
					"material":0
				},
				{
					"attributes":{
						"POSITION":3,
						"NORMAL":4
					},
					"indices":5,
					"material":1
				},
				{
					"attributes":{
						"POSITION":6,
						"NORMAL":7
					},
					"indices":8,
					"material":2
				}
			]
		}
	],
	"accessors":[
		{
			"bufferView":0,
			"componentType":5126,
			"count":12868,
			"max":[
				0.07900000363588333,
				0.04000001400709152,
				0.0820000022649765
			],
			"min":[
				-0.07900000363588333,
				-2.2288269008186035e-08,
				-0.1295660436153412
			],
			"type":"VEC3"
		},
		{
			"bufferView":1,
			"componentType":5126,
			"count":12868,
			"type":"VEC3"
		},
		{
			"bufferView":2,
			"componentType":5123,
			"count":44727,
			"type":"SCALAR"
		},
		{
			"bufferView":3,
			"componentType":5126,
			"count":2832,
			"max":[
				0.019972609356045723,
				0.03554999455809593,
				-0.08399974554777145
			],
			"min":[
				-0.019972605630755424,
				0.00294999941252172,
				-0.10599999874830246
			],
			"type":"VEC3"
		},
		{
			"bufferView":4,
			"componentType":5126,
			"count":2832,
			"type":"VEC3"
		},
		{
			"bufferView":5,
			"componentType":5123,
			"count":8448,
			"type":"SCALAR"
		},
		{
			"bufferView":6,
			"componentType":5126,
			"count":176,
			"max":[
				0.0210999995470047,
				0.03435000032186508,
				-0.0820000022649765
			],
			"min":[
				-0.0210999958217144,
				0.004149996675550938,
				-0.08560000360012054
			],
			"type":"VEC3"
		},
		{
			"bufferView":7,
			"componentType":5126,
			"count":176,
			"type":"VEC3"
		},
		{
			"bufferView":8,
			"componentType":5123,
			"count":456,
			"type":"SCALAR"
		}
	],
	"bufferViews":[
		{
			"buffer":0,
			"byteLength":154416,
			"byteOffset":0,
			"target":34962
		},
		{
			"buffer":0,
			"byteLength":154416,
			"byteOffset":154416,
			"target":34962
		},
		{
			"buffer":0,
			"byteLength":89454,
			"byteOffset":308832,
			"target":34963
		},
		{
			"buffer":0,
			"byteLength":33984,
			"byteOffset":398288,
			"target":34962
		},
		{
			"buffer":0,
			"byteLength":33984,
			"byteOffset":432272,
			"target":34962
		},
		{
			"buffer":0,
			"byteLength":16896,
			"byteOffset":466256,
			"target":34963
		},
		{
			"buffer":0,
			"byteLength":2112,
			"byteOffset":483152,
			"target":34962
		},
		{
			"buffer":0,
			"byteLength":2112,
			"byteOffset":485264,
			"target":34962
		},
		{
			"buffer":0,
			"byteLength":912,
			"byteOffset":487376,
			"target":34963
		}
	],
	"buffers":[
		{
			"byteLength":488288,
			"uri":"JAKA_Zu_5_BASE.bin"
		}
	]
}
