{
	"asset":{
		"generator":"Khronos glTF Blender I/O v4.1.63",
		"version":"2.0"
	},
	"scene":0,
	"scenes":[
		{
			"name":"Scene",
			"nodes":[
				0
			]
		}
	],
	"nodes":[
		{
			"mesh":0,
			"name":"Zu 5 05_\u012c\u024f"
		}
	],
	"materials":[
		{
			"doubleSided":true,
			"name":"mat_0",
			"pbrMetallicRoughness":{
				"baseColorFactor":[
					1,
					0,
					0,
					1
				],
				"metallicFactor":0.5,
				"roughnessFactor":0.5
			}
		},
		{
			"doubleSided":true,
			"name":"mat_1",
			"pbrMetallicRoughness":{
				"baseColorFactor":[
					0.68668532371521,
					0.68668532371521,
					0.68668532371521,
					1
				],
				"metallicFactor":0.5,
				"roughnessFactor":0.5
			}
		},
		{
			"doubleSided":true,
			"name":"mat_2",
			"pbrMetallicRoughness":{
				"baseColorFactor":[
					0,
					1,
					0,
					1
				],
				"metallicFactor":0
			}
		},
		{
			"doubleSided":true,
			"name":"mat_3",
			"pbrMetallicRoughness":{
				"baseColorFactor":[
					0.024157634004950523,
					0.024157634004950523,
					0.024157634004950523,
					1
				]
			}
		}
	],
	"meshes":[
		{
			"name":"Zu 5 05_\u012c\u024f",
			"primitives":[
				{
					"attributes":{
						"POSITION":0,
						"NORMAL":1
					},
					"indices":2,
					"material":0
				},
				{
					"attributes":{
						"POSITION":3,
						"NORMAL":4
					},
					"indices":5,
					"material":1
				},
				{
					"attributes":{
						"POSITION":6,
						"NORMAL":7
					},
					"indices":8,
					"material":2
				},
				{
					"attributes":{
						"POSITION":9,
						"NORMAL":10
					},
					"indices":11,
					"material":3
				}
			]
		}
	],
	"accessors":[
		{
			"bufferView":0,
			"componentType":5126,
			"count":1026,
			"max":[
				0.042177796363830566,
				0.04215763881802559,
				0.055000320076942444
			],
			"min":[
				-0.04216647148132324,
				-0.04550011456012726,
				-0.04611067846417427
			],
			"type":"VEC3"
		},
		{
			"bufferView":1,
			"componentType":5126,
			"count":1026,
			"type":"VEC3"
		},
		{
			"bufferView":2,
			"componentType":5123,
			"count":5034,
			"type":"SCALAR"
		},
		{
			"bufferView":3,
			"componentType":5126,
			"count":3929,
			"max":[
				0.04091280698776245,
				0.041462242603302,
				0.06800033152103424
			],
			"min":[
				-0.04089158773422241,
				-0.04550011456012726,
				-0.07508301734924316
			],
			"type":"VEC3"
		},
		{
			"bufferView":4,
			"componentType":5126,
			"count":3929,
			"type":"VEC3"
		},
		{
			"bufferView":5,
			"componentType":5123,
			"count":12816,
			"type":"SCALAR"
		},
		{
			"bufferView":6,
			"componentType":5126,
			"count":892,
			"max":[
				0.04038459062576294,
				0.040383923798799515,
				-0.06861340999603271
			],
			"min":[
				-0.04038351774215698,
				-0.040384139865636826,
				-0.07500964403152466
			],
			"type":"VEC3"
		},
		{
			"bufferView":7,
			"componentType":5126,
			"count":892,
			"type":"VEC3"
		},
		{
			"bufferView":8,
			"componentType":5123,
			"count":4686,
			"type":"SCALAR"
		},
		{
			"bufferView":9,
			"componentType":5126,
			"count":453,
			"max":[
				0.023850560188293457,
				0.023819277063012123,
				-0.07499967515468597
			],
			"min":[
				-0.0238494873046875,
				-0.023819496855139732,
				-0.07499967515468597
			],
			"type":"VEC3"
		},
		{
			"bufferView":10,
			"componentType":5126,
			"count":453,
			"type":"VEC3"
		},
		{
			"bufferView":11,
			"componentType":5123,
			"count":810,
			"type":"SCALAR"
		}
	],
	"bufferViews":[
		{
			"buffer":0,
			"byteLength":12312,
			"byteOffset":0,
			"target":34962
		},
		{
			"buffer":0,
			"byteLength":12312,
			"byteOffset":12312,
			"target":34962
		},
		{
			"buffer":0,
			"byteLength":10068,
			"byteOffset":24624,
			"target":34963
		},
		{
			"buffer":0,
			"byteLength":47148,
			"byteOffset":34692,
			"target":34962
		},
		{
			"buffer":0,
			"byteLength":47148,
			"byteOffset":81840,
			"target":34962
		},
		{
			"buffer":0,
			"byteLength":25632,
			"byteOffset":128988,
			"target":34963
		},
		{
			"buffer":0,
			"byteLength":10704,
			"byteOffset":154620,
			"target":34962
		},
		{
			"buffer":0,
			"byteLength":10704,
			"byteOffset":165324,
			"target":34962
		},
		{
			"buffer":0,
			"byteLength":9372,
			"byteOffset":176028,
			"target":34963
		},
		{
			"buffer":0,
			"byteLength":5436,
			"byteOffset":185400,
			"target":34962
		},
		{
			"buffer":0,
			"byteLength":5436,
			"byteOffset":190836,
			"target":34962
		},
		{
			"buffer":0,
			"byteLength":1620,
			"byteOffset":196272,
			"target":34963
		}
	],
	"buffers":[
		{
			"byteLength":197892,
			"uri":"JAKA_Zu_5_J5.bin"
		}
	]
}
