{
	"asset":{
		"generator":"Khronos glTF Blender I/O v4.1.63",
		"version":"2.0"
	},
	"scene":0,
	"scenes":[
		{
			"name":"Scene",
			"nodes":[
				0
			]
		}
	],
	"nodes":[
		{
			"mesh":0,
			"name":"Zu 5 06_\u012c\u024f001"
		}
	],
	"materials":[
		{
			"doubleSided":true,
			"name":"mat_1",
			"pbrMetallicRoughness":{
				"baseColorFactor":[
					0.024157634004950523,
					0.024157634004950523,
					0.024157634004950523,
					1
				],
				"metallicFactor":0.5,
				"roughnessFactor":0.5
			}
		},
		{
			"doubleSided":true,
			"name":"mat_0",
			"pbrMetallicRoughness":{
				"baseColorFactor":[
					0.68668532371521,
					0.68668532371521,
					0.68668532371521,
					1
				],
				"metallicFactor":0.5,
				"roughnessFactor":0.5
			}
		}
	],
	"meshes":[
		{
			"name":"Zu 5 06_\u012c\u024f001",
			"primitives":[
				{
					"attributes":{
						"POSITION":0,
						"NORMAL":1
					},
					"indices":2,
					"material":0
				},
				{
					"attributes":{
						"POSITION":3,
						"NORMAL":4
					},
					"indices":5,
					"material":1
				}
			]
		}
	],
	"accessors":[
		{
			"bufferView":0,
			"componentType":5126,
			"count":1876,
			"max":[
				0.002771698171272874,
				-0.03409915789961815,
				0.08279356360435486
			],
			"min":[
				-0.0027995926793664694,
				-0.04099920019507408,
				0.07720794528722763
			],
			"type":"VEC3"
		},
		{
			"bufferView":1,
			"componentType":5126,
			"count":1876,
			"type":"VEC3"
		},
		{
			"bufferView":2,
			"componentType":5123,
			"count":2949,
			"type":"SCALAR"
		},
		{
			"bufferView":3,
			"componentType":5126,
			"count":4426,
			"max":[
				0.04050043597817421,
				0.04050082340836525,
				0.10700075328350067
			],
			"min":[
				-0.04049959406256676,
				-0.04059920087456703,
				0.06800075620412827
			],
			"type":"VEC3"
		},
		{
			"bufferView":4,
			"componentType":5126,
			"count":4426,
			"type":"VEC3"
		},
		{
			"bufferView":5,
			"componentType":5123,
			"count":15153,
			"type":"SCALAR"
		}
	],
	"bufferViews":[
		{
			"buffer":0,
			"byteLength":22512,
			"byteOffset":0,
			"target":34962
		},
		{
			"buffer":0,
			"byteLength":22512,
			"byteOffset":22512,
			"target":34962
		},
		{
			"buffer":0,
			"byteLength":5898,
			"byteOffset":45024,
			"target":34963
		},
		{
			"buffer":0,
			"byteLength":53112,
			"byteOffset":50924,
			"target":34962
		},
		{
			"buffer":0,
			"byteLength":53112,
			"byteOffset":104036,
			"target":34962
		},
		{
			"buffer":0,
			"byteLength":30306,
			"byteOffset":157148,
			"target":34963
		}
	],
	"buffers":[
		{
			"byteLength":187456,
			"uri":"JAKA_Zu_5_J6.bin"
		}
	]
}
